<svg width="282" height="57" viewBox="0 0 282 57" fill="none" xmlns="http://www.w3.org/2000/svg">
<path fill-rule="evenodd" clip-rule="evenodd" d="M176.478 14.3484C174.036 12.9473 171.314 12.2468 168.312 12.2468C164.188 12.2468 160.946 13.5478 158.584 16.1499V0.477417H149.216V45.0329H158.163V41.3099C160.485 44.1121 163.868 45.5132 168.312 45.5132C171.314 45.5132 174.036 44.8327 176.478 43.4716C178.96 42.0705 180.902 40.129 182.303 37.647C183.704 35.125 184.404 32.2027 184.404 28.88C184.404 25.5574 183.704 22.6551 182.303 20.1731C180.902 17.6511 178.96 15.7095 176.478 14.3484ZM172.575 35.4252C171.054 37.0265 169.092 37.8271 166.69 37.8271C164.288 37.8271 162.307 37.0265 160.745 35.4252C159.224 33.7839 158.464 31.6022 158.464 28.88C158.464 26.1578 159.224 23.9961 160.745 22.3948C162.307 20.7535 164.288 19.9329 166.69 19.9329C169.092 19.9329 171.054 20.7535 172.575 22.3948C174.136 23.9961 174.917 26.1578 174.917 28.88C174.917 31.6022 174.136 33.7839 172.575 35.4252ZM19.0952 12.2468C22.0976 12.2468 24.8197 12.9473 27.2617 14.3484C29.7437 15.7095 31.6852 17.6511 33.0863 20.1731C34.4874 22.6551 35.188 25.5574 35.188 28.88C35.188 32.2027 34.4874 35.125 33.0863 37.647C31.6852 40.129 29.7437 42.0705 27.2617 43.4716C24.8197 44.8327 22.0976 45.5132 19.0952 45.5132C14.9719 45.5132 11.7293 44.2122 9.36745 41.6101V56.6821H0V12.7272H8.94712V16.4501C11.269 13.6479 14.6517 12.2468 19.0952 12.2468ZM17.4739 37.8271C19.8758 37.8271 21.8374 37.0265 23.3586 35.4252C24.9198 33.7839 25.7004 31.6022 25.7004 28.88C25.7004 26.1578 24.9198 23.9961 23.3586 22.3948C21.8374 20.7535 19.8758 19.9329 17.4739 19.9329C15.072 19.9329 13.0904 20.7535 11.5292 22.3948C10.008 23.9961 9.24736 26.1578 9.24736 28.88C9.24736 31.6022 10.008 33.7839 11.5292 35.4252C13.0904 37.0265 15.072 37.8271 17.4739 37.8271ZM55.3298 45.5132C51.9271 45.5132 48.8646 44.8127 46.1425 43.4116C43.4603 41.9704 41.3587 39.9888 39.8375 37.4668C38.3163 34.9448 37.5556 32.0826 37.5556 28.88C37.5556 25.6775 38.3163 22.8152 39.8375 20.2932C41.3587 17.7712 43.4603 15.8096 46.1425 14.4085C48.8646 12.9674 51.9271 12.2468 55.3298 12.2468C58.7325 12.2468 61.7749 12.9674 64.457 14.4085C67.1392 15.8096 69.2409 17.7712 70.7621 20.2932C72.2833 22.8152 73.0439 25.6775 73.0439 28.88C73.0439 32.0826 72.2833 34.9448 70.7621 37.4668C69.2409 39.9888 67.1392 41.9704 64.457 43.4116C61.7749 44.8127 58.7325 45.5132 55.3298 45.5132ZM55.3298 37.8271C57.7317 37.8271 59.6933 37.0265 61.2145 35.4252C62.7757 33.7839 63.5563 31.6022 63.5563 28.88C63.5563 26.1578 62.7757 23.9961 61.2145 22.3948C59.6933 20.7535 57.7317 19.9329 55.3298 19.9329C52.9279 19.9329 50.9463 20.7535 49.3851 22.3948C47.8238 23.9961 47.0432 26.1578 47.0432 28.88C47.0432 31.6022 47.8238 33.7839 49.3851 35.4252C50.9463 37.0265 52.9279 37.8271 55.3298 37.8271ZM84.1091 43.4116C86.8713 44.8127 89.9737 45.5132 93.4165 45.5132C96.8192 45.5132 99.7815 44.7927 102.304 43.3515C104.866 41.9104 106.727 39.9088 107.888 37.3467L100.622 33.3836C98.9809 36.3459 96.559 37.8271 93.3564 37.8271C90.9145 37.8271 88.8929 37.0265 87.2916 35.4252C85.6903 33.8239 84.8897 31.6422 84.8897 28.88C84.8897 26.1178 85.6903 23.9361 87.2916 22.3348C88.8929 20.7335 90.9145 19.9329 93.3564 19.9329C96.519 19.9329 98.9409 21.4141 100.622 24.3764L107.888 20.4733C106.727 17.8312 104.866 15.8096 102.304 14.4085C99.7815 12.9674 96.8192 12.2468 93.4165 12.2468C89.9737 12.2468 86.8713 12.9674 84.1091 14.4085C81.3869 15.8096 79.2452 17.7712 77.684 20.2932C76.1628 22.8152 75.4022 25.6775 75.4022 28.88C75.4022 32.0826 76.1628 34.9448 77.684 37.4668C79.2452 39.9888 81.3869 41.9704 84.1091 43.4116ZM126.742 45.5132C123.339 45.5132 120.277 44.8127 117.555 43.4116C114.873 41.9704 112.771 39.9888 111.25 37.4668C109.729 34.9448 108.968 32.0826 108.968 28.88C108.968 25.6775 109.729 22.8152 111.25 20.2932C112.771 17.7712 114.873 15.8096 117.555 14.4085C120.277 12.9674 123.339 12.2468 126.742 12.2468C130.145 12.2468 133.187 12.9674 135.869 14.4085C138.551 15.8096 140.653 17.7712 142.174 20.2932C143.696 22.8152 144.456 25.6775 144.456 28.88C144.456 32.0826 143.696 34.9448 142.174 37.4668C140.653 39.9888 138.551 41.9704 135.869 43.4116C133.187 44.8127 130.145 45.5132 126.742 45.5132ZM126.742 37.8271C129.144 37.8271 131.106 37.0265 132.627 35.4252C134.188 33.7839 134.969 31.6022 134.969 28.88C134.969 26.1578 134.188 23.9961 132.627 22.3948C131.106 20.7535 129.144 19.9329 126.742 19.9329C124.34 19.9329 122.359 20.7535 120.797 22.3948C119.236 23.9961 118.455 26.1578 118.455 28.88C118.455 31.6022 119.236 33.7839 120.797 35.4252C122.359 37.0265 124.34 37.8271 126.742 37.8271ZM221.96 12.7272V45.0329H213.013V41.3099C210.691 44.1121 207.328 45.5132 202.925 45.5132C199.882 45.5132 197.12 44.8327 194.638 43.4716C192.196 42.1105 190.275 40.169 188.874 37.647C187.473 35.125 186.772 32.2027 186.772 28.88C186.772 25.5574 187.473 22.635 188.874 20.113C190.275 17.591 192.196 15.6495 194.638 14.2884C197.12 12.9273 199.882 12.2468 202.925 12.2468C207.048 12.2468 210.271 13.5478 212.593 16.1499V12.7272H221.96ZM204.546 37.8271C206.908 37.8271 208.87 37.0265 210.431 35.4252C211.992 33.7839 212.773 31.6022 212.773 28.88C212.773 26.1578 211.992 23.9961 210.431 22.3948C208.87 20.7535 206.908 19.9329 204.546 19.9329C202.144 19.9329 200.163 20.7535 198.601 22.3948C197.04 23.9961 196.26 26.1578 196.26 28.88C196.26 31.6022 197.04 33.7839 198.601 35.4252C200.163 37.0265 202.144 37.8271 204.546 37.8271ZM258.435 15.8496C255.993 13.4477 252.77 12.2468 248.767 12.2468C246.565 12.2468 244.544 12.6271 242.702 13.3877C240.861 14.1083 239.32 15.1491 238.079 16.5102V12.7272H229.131V45.0329H238.499V29.0602C238.499 26.1779 239.199 24.0161 240.601 22.575C242.002 21.0938 243.883 20.3532 246.245 20.3532C248.367 20.3532 249.988 20.9937 251.109 22.2748C252.23 23.5157 252.79 25.4173 252.79 27.9793V45.0329H262.158V26.5381C262.158 21.8144 260.917 18.2516 258.435 15.8496ZM277.739 3.53325C276.427 2.77874 274.959 2.40149 273.335 2.40149C271.711 2.40149 270.235 2.78694 268.906 3.55785C267.578 4.32876 266.528 5.3785 265.757 6.70708C265.003 8.03567 264.625 9.49547 264.625 11.0865C264.625 12.6775 265.003 14.1373 265.757 15.4659C266.528 16.7945 267.57 17.8442 268.882 18.6151C270.21 19.386 271.678 19.7715 273.286 19.7715C274.893 19.7715 276.361 19.386 277.69 18.6151C279.018 17.8442 280.068 16.7945 280.839 15.4659C281.61 14.1209 281.995 12.6447 281.995 11.0373C281.995 9.42986 281.618 7.97006 280.864 6.65788C280.109 5.32929 279.068 4.28775 277.739 3.53325ZM276.853 17.2373C275.787 17.8606 274.598 18.1723 273.286 18.1723C271.974 18.1723 270.785 17.8606 269.718 17.2373C268.669 16.614 267.84 15.7611 267.233 14.6786C266.627 13.596 266.323 12.3987 266.323 11.0865C266.323 9.77431 266.627 8.57694 267.233 7.49439C267.84 6.41184 268.677 5.55892 269.743 4.93564C270.809 4.31235 272.007 4.00071 273.335 4.00071C274.664 4.00071 275.861 4.31235 276.927 4.93564C277.993 5.54252 278.822 6.37904 279.412 7.44518C280.019 8.51133 280.322 9.7087 280.322 11.0373C280.322 12.3495 280.011 13.555 279.388 14.654C278.781 15.7365 277.936 16.5976 276.853 17.2373ZM277.395 11.5047C277.706 10.9963 277.862 10.3976 277.862 9.7087C277.862 8.67535 277.493 7.85524 276.755 7.24836C276.017 6.62507 275 6.31343 273.704 6.31343H269.546V15.8595H272.105V13.104H273.704H273.803L275.599 15.8595H278.157L276.066 12.6611C276.657 12.3823 277.099 11.9968 277.395 11.5047ZM274.861 10.8159C274.549 11.0619 274.106 11.1849 273.532 11.1849H272.08V8.20789H273.532C274.106 8.20789 274.549 8.33911 274.861 8.60154C275.189 8.86398 275.353 9.23303 275.353 9.7087C275.353 10.1844 275.189 10.5534 274.861 10.8159Z" fill="white"/>
</svg>
